<svg xmlns="http://www.w3.org/2000/svg" width="159" height="24" viewBox="0 0 169 24" fill="none">
            <g clip-path="url(#clip0_4346_38211)">
              <path d="M7.58568 5.57499C5.41051 5.57499 3.56436 6.56204 2.5773 8.29853V0.0548096H0V12.5392C0 16.9261 2.99772 19.7227 7.16527 19.7227C11.3328 19.7227 14.4402 16.7799 14.4402 12.5575C14.4219 8.11574 11.1135 5.57499 7.58568 5.57499ZM7.18355 17.3465C4.44174 17.3465 2.5773 15.3907 2.5773 12.6671C2.5773 9.94361 4.42346 7.98779 7.18355 7.98779C9.94364 7.98779 11.8081 9.94361 11.8081 12.6671C11.8081 15.3907 9.96192 17.3465 7.18355 17.3465Z" fill="#E5E5E5"></path>
              <path d="M23.0678 5.57495C18.8271 5.57495 15.8294 8.57267 15.8294 12.6488C15.8294 16.725 18.8271 19.741 23.0678 19.741C27.3084 19.741 30.3062 16.7433 30.3062 12.6671C30.3062 8.59095 27.3084 5.57495 23.0678 5.57495ZM23.0678 17.3465C20.2894 17.3465 18.4433 15.3906 18.4433 12.6671C18.4433 9.94357 20.2894 7.98775 23.0678 7.98775C25.8461 7.98775 27.6923 9.94357 27.6923 12.6671C27.6923 15.3906 25.8461 17.3465 23.0678 17.3465Z" fill="#E5E5E5"></path>
              <path d="M42.4067 5.94055V12.9596C42.4067 15.8659 40.7982 17.3465 38.3488 17.3465C35.8995 17.3465 34.2909 15.8842 34.2909 12.9596V5.94055H31.7136V12.9596C31.7136 17.4562 34.3823 19.741 38.3488 19.741C42.3153 19.741 44.984 17.4196 44.984 12.9596V5.94055H42.4067Z" fill="#E5E5E5"></path>
              <path d="M46.8302 0.036499V19.741H49.4075V0.036499H46.8302Z" fill="#E5E5E5"></path>
              <path d="M71.6893 5.46529V8.04259H69.6238V19.741H67.0282V0.036499H69.6238V5.46529H71.6893Z" fill="#E5E5E5"></path>
              <path d="M78.1599 5.46529V8.04259H76.0762V19.741H73.4989V0.036499H76.0762V5.46529H78.1599Z" fill="#E5E5E5"></path>
              <path d="M65.6755 12.6123C65.6755 8.53617 62.7327 5.53845 58.492 5.53845C54.2513 5.53845 51.2536 8.51789 51.2536 12.6123C51.2536 16.7068 54.2513 19.6862 58.492 19.6862C61.6177 19.6862 64.067 18.0777 65.1089 15.5735H62.2574C61.4714 16.7433 60.2468 17.2917 58.5103 17.2917C56.1706 17.2917 54.3793 15.9573 53.9954 13.5628H65.6938L65.6755 12.6123ZM54.0685 11.2414C54.5803 9.12109 56.2803 7.91469 58.5103 7.91469C60.7403 7.91469 62.4585 9.08453 62.9703 11.2414H54.0685Z" fill="#E5E5E5"></path>
              <path d="M92.5819 12.6123C92.5819 8.53617 89.639 5.53845 85.3983 5.53845C81.1576 5.53845 78.1599 8.51789 78.1599 12.6123C78.1599 16.7068 81.1576 19.6862 85.3983 19.6862C88.524 19.6862 90.9733 18.0777 92.0152 15.5735H89.1637C88.3777 16.7433 87.1531 17.2917 85.4166 17.2917C83.0769 17.2917 81.2856 15.9573 80.9017 13.5628H92.6001L92.5819 12.6123ZM80.9566 11.2414C81.4684 9.12109 83.1683 7.91469 85.3983 7.91469C87.6283 7.91469 89.3465 9.08453 89.8583 11.2414H80.9566Z" fill="#E5E5E5"></path>
              <path d="M101.008 4.45996C96.8408 4.45996 93.8431 7.25661 93.8431 11.6435V23.9999H96.4204V15.8842C97.3892 17.6207 99.2536 18.6077 101.429 18.6077C104.938 18.6077 108.265 16.0852 108.265 11.607C108.283 7.40284 105.286 4.45996 101.008 4.45996ZM101.045 16.2132C98.3031 16.2132 96.4387 14.2574 96.4387 11.5338C96.4387 8.8103 98.2848 6.85448 101.045 6.85448C103.805 6.85448 105.669 8.8103 105.669 11.5338C105.669 14.2574 103.805 16.2132 101.045 16.2132Z" fill="#E5E5E5"></path>
              <path d="M116.564 7.93287C116.344 7.89632 116.125 7.87804 115.887 7.87804C113.95 7.87804 112.67 8.88337 112.67 11.351V19.6678H110.093V11.3693C110.093 7.40279 112.433 5.48352 115.887 5.48352C116.454 5.48352 116.564 5.52008 116.564 5.52008V7.93287Z" fill="#E5E5E5"></path>
              <path d="M123.802 5.53845C119.561 5.53845 116.564 8.53617 116.564 12.6123C116.564 16.6885 119.561 19.6862 123.802 19.6862C128.043 19.6862 131.04 16.6885 131.04 12.6123C131.04 8.53617 128.043 5.53845 123.802 5.53845ZM123.802 17.2917C121.024 17.2917 119.177 15.3176 119.177 12.6123C119.177 9.90707 121.024 7.93297 123.802 7.93297C126.58 7.93297 128.426 9.88879 128.426 12.6123C128.426 15.3359 126.562 17.2917 123.802 17.2917Z" fill="#E5E5E5"></path>
              <path d="M139.613 5.53845C135.372 5.53845 132.375 8.53617 132.375 12.6123C132.375 16.6885 135.372 19.6862 139.613 19.6862C143.854 19.6862 146.851 16.6885 146.851 12.6123C146.851 8.53617 143.854 5.53845 139.613 5.53845ZM139.613 17.2917C136.835 17.2917 134.989 15.3359 134.989 12.6123C134.989 9.88879 136.835 7.93297 139.613 7.93297C142.391 7.93297 144.238 9.88879 144.238 12.6123C144.238 15.3359 142.391 17.2917 139.613 17.2917Z" fill="#E5E5E5"></path>
              <path d="M151.037 5.83086C151.037 5.68463 151.037 5.55668 151.056 5.44701C151.056 5.30078 151.074 5.17283 151.092 5.04488C151.11 4.91693 151.129 4.78897 151.165 4.66102C151.22 4.4234 151.293 4.20405 151.385 4.00299C151.476 3.80192 151.586 3.61913 151.714 3.4729C152.097 2.99766 152.609 2.7052 153.231 2.54069C153.34 2.52241 153.45 2.48585 153.56 2.48585C153.779 2.44929 154.017 2.43102 154.254 2.43102C154.492 2.43102 154.711 2.44929 154.931 2.48585V0.0730565C154.931 0.0730565 154.912 0.0730565 154.839 0.0547778C154.821 0.0547778 154.803 0.0547778 154.784 0.0547778C154.602 0.036499 154.437 0.036499 154.254 0.036499C153.816 0.036499 153.414 0.0730565 153.011 0.127893C152.865 0.146172 152.719 0.182729 152.573 0.219287C152.427 0.255844 152.28 0.292402 152.152 0.328959C152.061 0.347238 151.97 0.383795 151.878 0.420353C151.714 0.475189 151.531 0.548304 151.366 0.621419C151.202 0.694534 151.037 0.785928 150.891 0.877322C150.745 0.968715 150.599 1.06011 150.452 1.16978C150.233 1.33429 150.05 1.4988 149.867 1.69987C149.813 1.77298 149.74 1.82782 149.685 1.90093C149.63 1.97405 149.575 2.04716 149.52 2.102C149.411 2.24823 149.319 2.39446 149.228 2.55897C149.173 2.63208 149.136 2.72348 149.1 2.79659C149.063 2.88798 149.008 2.9611 148.972 3.05249C148.935 3.14389 148.899 3.23528 148.862 3.32667C148.826 3.41807 148.807 3.50946 148.771 3.60086C148.734 3.69225 148.716 3.80192 148.679 3.89332C148.643 3.98471 148.625 4.09438 148.606 4.20405C148.588 4.29545 148.57 4.40512 148.551 4.49651C148.551 4.51479 148.533 4.53307 148.533 4.55135C148.515 4.64274 148.497 4.75242 148.497 4.84381C148.478 4.95348 148.46 5.06316 148.46 5.19111C148.442 5.30078 148.442 5.42873 148.442 5.5384C148.442 5.6298 148.442 5.73947 148.442 5.84914V19.7044H151.019V10.4554H154.912V8.07915H151.019L151.037 5.83086Z" fill="#E5E5E5"></path>
              <path d="M156.521 19.3023C157.409 19.3023 158.129 18.5821 158.129 17.6937C158.129 16.8054 157.409 16.0852 156.521 16.0852C155.633 16.0852 154.912 16.8054 154.912 17.6937C154.912 18.5821 155.633 19.3023 156.521 19.3023Z" fill="url(#paint0_linear_4346_38211)"></path>
            </g>
            <defs>
              <linearGradient id="paint0_linear_4346_38211" x1="155.445" y1="18.7731" x2="157.707" y2="16.5112" gradientUnits="userSpaceOnUse">
                <stop stop-color="#07BDCB"></stop>
                <stop offset="1" stop-color="#00D064"></stop>
              </linearGradient>
              <clipPath id="clip0_4346_38211">
                <rect width="158.129" height="24" fill="white"></rect>
              </clipPath>
            </defs>
          </svg>